<svg width="128" height="171" viewBox="0 0 128 171" fill="none" xmlns="http://www.w3.org/2000/svg">
<path d="M68.5208 72.5975C67.5128 72.9472 66.5067 73.2999 65.5026 73.6556C59.4429 75.7983 53.1679 76.9272 46.8193 77.8114C42.5839 78.4009 38.3485 78.7722 34.0778 78.5158C25.9607 78.0236 18.7337 75.3533 12.727 69.7179C7.94636 65.232 4.90467 59.8059 3.88488 53.3099C2.29035 43.1444 3.50467 33.2677 7.15646 23.6829C9.16068 18.413 11.9312 13.594 15.8777 9.53548C21.8137 3.38136 29.0466 0.0744087 37.6117 0.000724378C47.338 -0.0788547 54.7713 6.40537 56.2597 16.0079C56.7666 19.25 56.7755 22.4921 55.5759 25.5898C52.2012 34.3258 40.1493 37.8155 32.946 30.5709C30.6559 28.2542 29.5477 25.3953 30.1961 22.106C30.9624 18.2214 35.7725 16.1081 39.0382 18.1506C40.2673 18.9199 40.9451 20.1136 41.4875 21.3928C41.7203 21.9469 41.9561 22.501 42.1329 23.0728C42.3717 23.842 42.8433 23.9157 43.5211 23.6622C45.3515 23.0168 46.0736 22.106 46.0323 20.1755C45.8879 13.4378 39.8841 8.64537 32.9136 11.1831C28.743 12.7039 25.6925 15.6041 23.087 19.0761C18.8104 24.7498 16.4554 31.1957 15.5712 38.2046C14.9154 43.0069 15.1452 47.8888 16.2491 52.6084C17.9055 59.464 22.3443 63.6935 28.8874 65.8568C33.6887 67.4484 38.6462 67.4632 43.5948 66.8825C56.8108 65.3322 69.3136 61.4004 81.2387 55.5292C89.7991 51.2919 97.983 46.3332 105.702 40.7069C109.27 38.1211 112.892 35.606 116.569 33.1616C117.694 32.4196 118.924 31.8495 120.218 31.4698C123.419 30.5237 127.235 32.8462 127.881 36.0147C128.205 37.5915 127.881 39.021 126.746 40.1823C125.901 41.0752 124.99 41.9028 124.02 42.6581C118.638 46.7372 113.265 50.8223 107.809 54.816C98.8109 61.4122 90.4787 68.7954 82.2585 76.3082C74.9224 83.0076 67.5599 89.6863 60.4774 96.6451C52.4016 104.576 44.762 112.935 37.9329 121.993C32.551 129.113 27.9443 136.759 23.1401 144.26C18.3895 151.697 14.2543 159.51 10.7758 167.621C8.88657 172.009 4.16488 171.647 1.72151 168.962C-0.0793356 166.975 -0.341652 164.712 0.356876 162.239C1.41203 158.46 3.09498 154.938 4.85751 151.457C12.0874 137.183 20.9295 123.973 31.0832 111.603C39.2946 101.582 47.8538 91.9028 57.253 82.9811C60.6454 79.7596 64.194 76.6973 67.6719 73.5495C67.9667 73.2724 68.2997 73.0072 68.6121 72.7389L68.5208 72.5975Z" fill="#F7F8FA"/>
</svg>
